Coordinates
version=1
nRows=4
nColumns=114
inDegrees=yes

Units are S.I. units (second, meters, Newtons, ...)
If the header above contains a line with 'inDegrees', this indicates whether rotational values are in degrees (yes) or radians (no).

endheader 
time	pelvis_tilt	pelvis_list	pelvis_rotation	pelvis_tx	pelvis_ty	pelvis_tz	hip_flexion_l	hip_adduction_l	hip_rotation_l	hip_flexion_r	hip_adduction_r	hip_rotation_r	knee_angle_l	knee_angle_r	ankle_angle_l	ankle_angle_r	subtalar_angle_l	subtalar_angle_r	mtp_angle_l	mtp_angle_r	lumbar_extension	lumbar_bending	lumbar_rotation	arm_flex_l	arm_add_l	arm_rot_l	arm_flex_r	arm_add_r	arm_rot_r	elbow_flex_l	elbow_flex_r	pro_sup_l	pro_sup_r	addbrev_l/activation	addlong_l/activation	addmagDist_l/activation	addmagIsch_l/activation	addmagMid_l/activation	addmagProx_l/activation	bflh_l/activation	bfsh_l/activation	edl_l/activation	ehl_l/activation	fdl_l/activation	fhl_l/activation	gaslat_l/activation	gasmed_l/activation	glmax1_l/activation	glmax2_l/activation	glmax3_l/activation	glmed1_l/activation	glmed2_l/activation	glmed3_l/activation	glmin1_l/activation	glmin2_l/activation	glmin3_l/activation	grac_l/activation	iliacus_l/activation	perbrev_l/activation	perlong_l/activation	piri_l/activation	psoas_l/activation	recfem_l/activation	sart_l/activation	semimem_l/activation	semiten_l/activation	soleus_l/activation	tfl_l/activation	tibant_l/activation	tibpost_l/activation	vasint_l/activation	vaslat_l/activation	vasmed_l/activation	addbrev_r/activation	addlong_r/activation	addmagDist_r/activation	addmagIsch_r/activation	addmagMid_r/activation	addmagProx_r/activation	bflh_r/activation	bfsh_r/activation	edl_r/activation	ehl_r/activation	fdl_r/activation	fhl_r/activation	gaslat_r/activation	gasmed_r/activation	glmax1_r/activation	glmax2_r/activation	glmax3_r/activation	glmed1_r/activation	glmed2_r/activation	glmed3_r/activation	glmin1_r/activation	glmin2_r/activation	glmin3_r/activation	grac_r/activation	iliacus_r/activation	perbrev_r/activation	perlong_r/activation	piri_r/activation	psoas_r/activation	recfem_r/activation	sart_r/activation	semimem_r/activation	semiten_r/activation	soleus_r/activation	tfl_r/activation	tibant_r/activation	tibpost_r/activation	vasint_r/activation	vaslat_r/activation	vasmed_r/activation	
          1.70000000	         11.54642864	         -3.95158965	          0.05355884	          0.10540774	          0.95033867	         -0.31355511	         -1.99126338	         -6.91111477	          5.85998718	          1.76521783	          0.16527054	          5.56015525	         12.22829560	          8.78009278	          8.65888780	          8.10898378	         -4.96880126	         -5.88227424	        -13.59726098	        -34.33619135	        -19.46691256	          0.62280171	          1.82512308	          2.00387285	         -5.85503685	         -3.27874107	          3.81193341	         -4.62730498	          1.86332519	         20.66383253	         25.12219374	         79.29350633	         84.18893053	          0.52599596	          0.76528498	          0.39511235	          0.42092637	          0.44272342	          0.42364148	          0.25758539	          0.48074761	          0.69756441	          0.64653365	          0.53607095	          0.43374849	          0.19640794	          0.11052641	          0.20615554	          0.15053605	          0.19031658	          0.48226179	          0.31558890	          0.22029166	          0.44680268	          0.38018420	          0.38054019	          0.42073985	          0.60728256	          0.54451064	          0.56159735	          0.22904459	          0.46050399	          0.40171052	          0.41997919	          0.32391056	          0.40352687	          0.06025971	          0.57018444	          0.85081307	          0.37033899	          0.31734137	          0.16606292	          0.27268958	          0.56092608	          0.81460186	          0.42423079	          0.46343819	          0.46259026	          0.45211562	          0.39132303	          0.49715541	          0.71631301	          0.66972003	          0.53641018	          0.36494487	          0.15703142	          0.09571934	          0.20302428	          0.15489193	          0.22405790	          0.42745999	          0.28723669	          0.20225136	          0.43797416	          0.37553355	          0.35333471	          0.47365471	          0.60968484	          0.53491491	          0.46338802	          0.18862615	          0.48774210	          0.22820189	          0.41974380	          0.62362983	          0.48622672	          0.04431942	          0.48552249	          0.89690219	          0.28576189	          0.27694594	          0.13266383	          0.22689558	
          1.71000000	         11.49908585	         -3.92106450	          0.07814073	          0.11250608	          0.94944332	         -0.31205708	         -2.22040232	         -6.98706414	          5.43737504	          1.62188815	          0.35880550	          5.34374429	         12.54499046	          9.30998538	          8.60449510	          7.88339162	         -5.18932247	         -5.90081350	        -12.11401957	        -30.46006019	        -19.63086554	          0.60610018	          1.79634876	          2.01070862	         -5.86049146	         -3.27529926	          3.80988660	         -4.59331960	          1.87099414	         20.70477086	         25.12694641	         79.30053696	         84.19501226	          0.62681061	          0.78405572	          0.47527507	          0.45234613	          0.54069106	          0.53176446	          0.31422205	          0.55178460	          0.68655447	          0.64347225	          0.53940062	          0.45857133	          0.28240837	          0.17797753	          0.27275580	          0.19731750	          0.24467001	          0.54429091	          0.38927769	          0.29682581	          0.54646790	          0.47774555	          0.44507993	          0.52295755	          0.68302474	          0.55921393	          0.56979920	          0.31594827	          0.58682292	          0.43500937	          0.53343008	          0.37063462	          0.45211074	          0.07090678	          0.57964699	          0.81572467	          0.40382975	          0.34097384	          0.17115217	          0.28838956	          0.67418041	          0.82281413	          0.52828087	          0.52121289	          0.58082261	          0.57093569	          0.46115561	          0.56822826	          0.72884024	          0.69002317	          0.53984633	          0.40212742	          0.17043411	          0.10155138	          0.26274662	          0.20012954	          0.30152280	          0.47008238	          0.34010356	          0.25775638	          0.52633928	          0.45773826	          0.39770949	          0.57485146	          0.67635090	          0.53099689	          0.45584405	          0.23537300	          0.60311400	          0.25040409	          0.52684247	          0.65295512	          0.56597267	          0.04839022	          0.49914647	          0.89105342	          0.34821916	          0.30151625	          0.14102362	          0.24608652	
          1.72000000	         11.45350619	         -3.89057290	          0.09627862	          0.11951830	          0.94864259	         -0.31050984	         -2.43918678	         -7.06250961	          5.00911224	          1.47905692	          0.55073089	          5.13393895	         12.88298696	          9.83259040	          8.57149035	          7.66866218	         -5.43051581	         -5.94421711	        -10.88826294	        -27.01989804	        -19.79398645	          0.60826600	          1.76656772	          2.01703274	         -5.86711448	         -3.26924598	          3.81187256	         -4.56530376	          1.87769873	         20.75933246	         25.13149121	         79.31106890	         84.20213835	          0.66783356	          0.79975697	          0.49585155	          0.47218515	          0.57265973	          0.57107811	          0.33657842	          0.58716019	          0.68063965	          0.63905825	          0.53585695	          0.46631123	          0.32168102	          0.21141145	          0.28646873	          0.20426395	          0.25206387	          0.57142691	          0.41589922	          0.31691855	          0.58591254	          0.51454220	          0.47766996	          0.56160785	          0.72068806	          0.57669891	          0.58582568	          0.34471580	          0.64113317	          0.44571259	          0.57995167	          0.39186517	          0.47811998	          0.08140112	          0.58216081	          0.79040512	          0.41040082	          0.35478891	          0.16887911	          0.29484440	          0.72347110	          0.83163934	          0.57338857	          0.56199251	          0.62911030	          0.60962772	          0.48692088	          0.60578679	          0.74742289	          0.70541200	          0.53568759	          0.41510134	          0.17052182	          0.09880280	          0.26603440	          0.20209052	          0.31384793	          0.50107601	          0.34958879	          0.25864148	          0.56400301	          0.47979596	          0.41383199	          0.61220948	          0.70909399	          0.54309253	          0.46739433	          0.24791379	          0.63470186	          0.25560215	          0.56359097	          0.66257863	          0.61251337	          0.04528756	          0.50562597	          0.89445891	          0.36497847	          0.30702866	          0.13679891	          0.24535280	
          1.73000000	         11.40413103	         -3.85806360	          0.10641950	          0.12644803	          0.94802163	         -0.30890672	         -2.63910550	         -7.13332867	          4.58379157	          1.34147564	          0.73641070	          4.92936292	         13.24757390	         10.34195239	          8.55712636	          7.46476845	         -5.69586277	         -6.01552568	         -9.98046307	        -23.96629258	        -19.94681354	          0.62753944	          1.73316726	          2.02291171	         -5.87484643	         -3.25986368	          3.81425719	         -4.54265181	          1.88344833	         20.82948309	         25.13227427	         79.32989792	         84.21178515	          0.68739641	          0.80900699	          0.50909359	          0.47624212	          0.59108458	          0.59284709	          0.34487345	          0.60239697	          0.67628058	          0.63520835	          0.53191031	          0.46880738	          0.34382419	          0.23140496	          0.29364040	          0.20785039	          0.25696641	          0.57505371	          0.42661312	          0.32660508	          0.60090573	          0.53138674	          0.49053002	          0.58411896	          0.73153132	          0.58833675	          0.59660449	          0.35046007	          0.66466922	          0.44230043	          0.60065595	          0.40450004	          0.48900723	          0.08791233	          0.58225682	          0.77332063	          0.41038320	          0.35111741	          0.16477560	          0.29195765	          0.74447932	          0.83775488	          0.59567301	          0.57580005	          0.65154715	          0.62708936	          0.49360268	          0.61972035	          0.75077616	          0.70843538	          0.53316772	          0.42529312	          0.17489109	          0.10041925	          0.26456813	          0.20060901	          0.31790879	          0.51340778	          0.35237338	          0.25591596	          0.58214033	          0.48920994	          0.41816778	          0.63040493	          0.72341951	          0.54856195	          0.47419811	          0.25175278	          0.65118244	          0.25485778	          0.57936042	          0.65992447	          0.62916006	          0.04467735	          0.51108403	          0.88909353	          0.37805665	          0.31130141	          0.13564265	          0.24784566	
